<?xml version="1.0" encoding="UTF-8"?>
<!DOCTYPE svg PUBLIC "-//W3C//DTD SVG 1.1//EN" "http://www.w3.org/Graphics/SVG/1.1/DTD/svg11.dtd">
<svg xmlns="http://www.w3.org/2000/svg" version="1.1" width="250px" height="100px" style="shape-rendering:geometricPrecision; text-rendering:geometricPrecision; image-rendering:optimizeQuality; fill-rule:evenodd; clip-rule:evenodd" xmlns:xlink="http://www.w3.org/1999/xlink">
<g><path style="opacity:0.893" fill="#060606" d="M 77.5,26.5 C 79.2053,33.6293 81.872,40.296 85.5,46.5C 85.4021,48.5529 86.0687,50.2196 87.5,51.5C 87.4021,53.5529 88.0687,55.2196 89.5,56.5C 89.2591,59.0336 90.2591,60.7002 92.5,61.5C 99.6404,63.9596 102.64,61.293 101.5,53.5C 101.427,51.4104 101.094,49.4104 100.5,47.5C 101.043,47.44 101.376,47.1067 101.5,46.5C 100.675,45.6143 99.675,45.281 98.5,45.5C 97.2264,44.8106 97.2264,43.9772 98.5,43C 101.155,42.4357 103.821,41.9357 106.5,41.5C 107.726,41.5195 108.726,41.8529 109.5,42.5C 108.167,49.1667 108.167,55.8333 109.5,62.5C 110.791,62.2627 111.791,62.596 112.5,63.5C 101.596,63.4004 90.5965,63.7337 79.5,64.5C 78.9569,64.44 78.6236,64.1067 78.5,63.5C 79.6651,62.4164 80.9984,61.5831 82.5,61C 81.2021,58.2731 80.2021,55.4398 79.5,52.5C 75.6888,51.3547 71.6888,51.1881 67.5,52C 66.3084,54.5724 65.3084,57.2391 64.5,60C 64.8361,61.0299 65.5028,61.5299 66.5,61.5C 67.5,62.1667 68.5,62.8333 69.5,63.5C 59.3821,63.8551 49.0487,64.1884 38.5,64.5C 37.9569,64.44 37.6236,64.1067 37.5,63.5C 38.6283,62.7379 39.7949,62.0712 41,61.5C 41.4997,54.1742 41.6663,46.8409 41.5,39.5C 41.6567,38.1266 41.49,36.7932 41,35.5C 37.1384,44.0851 33.4717,52.7517 30,61.5C 29.3103,63.3502 28.1436,64.6836 26.5,65.5C 22.5145,58.1984 18.5145,50.865 14.5,43.5C 14.5086,41.6916 14.0086,40.0249 13,38.5C 12.5551,44.1716 12.0551,49.8383 11.5,55.5C 11.3161,58.2046 11.9827,60.5379 13.5,62.5C 15.099,62.2322 16.4324,62.5655 17.5,63.5C 13.2648,64.436 8.93147,64.7693 4.5,64.5C 3.95691,64.44 3.62358,64.1067 3.5,63.5C 5.19322,62.7717 6.69322,61.7717 8,60.5C 9.34011,50.4456 9.50678,40.4456 8.5,30.5C 7.46175,28.4805 6.12842,28.1472 4.5,29.5C 3.59603,28.791 3.26269,27.791 3.5,26.5C 8.03225,26.1818 12.3656,26.5151 16.5,27.5C 17.3764,31.5821 19.0431,35.2488 21.5,38.5C 23.6744,41.5154 25.3411,44.8487 26.5,48.5C 26.7553,51.0163 27.5886,53.3496 29,55.5C 29.4828,54.552 29.6495,53.552 29.5,52.5C 33.3909,44.3739 37.0576,36.0406 40.5,27.5C 45.3181,26.1876 49.9848,26.1876 54.5,27.5C 52.8621,28.1589 51.1955,28.8256 49.5,29.5C 48.1472,40.3623 48.4805,51.029 50.5,61.5C 54.5064,63.2863 58.0064,62.6196 61,59.5C 65.5,48.5 70,37.5 74.5,26.5C 75.6136,25.2241 76.6136,25.2241 77.5,26.5 Z M 74.5,40.5 C 75.4552,42.7457 76.1218,45.079 76.5,47.5C 74.8333,47.5 73.1667,47.5 71.5,47.5C 72.2638,44.9823 73.2638,42.649 74.5,40.5 Z"/></g>
<g><path style="opacity:0.913" fill="#090909" d="M 237.5,26.5 C 234.227,29.2473 230.727,31.914 227,34.5C 224.261,37.7221 222.928,41.3888 223,45.5C 223.717,44.9558 224.217,44.2891 224.5,43.5C 227.779,42.5078 231.112,42.3412 234.5,43C 237.229,43.5661 239.229,45.0661 240.5,47.5C 243.028,58.1026 238.862,64.1026 228,65.5C 225.456,64.9288 222.956,64.2621 220.5,63.5C 218.164,61.9962 216.331,59.9962 215,57.5C 212.893,39.587 220.393,29.2537 237.5,26.5 Z M 231.5,48.5 C 233.887,52.3874 234.054,56.3874 232,60.5C 228.711,63.2414 226.211,62.5747 224.5,58.5C 221.659,51.2609 223.992,47.9275 231.5,48.5 Z"/></g>
<g><path style="opacity:0.89" fill="#080808" d="M 131.5,27.5 C 129.552,28.1312 127.719,29.1312 126,30.5C 125.333,35.1667 125.333,39.8333 126,44.5C 126.717,43.9558 127.217,43.2891 127.5,42.5C 128.239,42.631 128.906,42.4643 129.5,42C 132.669,37.9992 136.003,34.1659 139.5,30.5C 139.289,28.5759 138.623,28.2426 137.5,29.5C 136.596,28.791 136.263,27.791 136.5,26.5C 141.695,26.1795 146.695,26.5128 151.5,27.5C 144.577,30.8952 138.577,35.7285 133.5,42C 134.044,42.7172 134.711,43.2172 135.5,43.5C 137.748,46.328 139.748,49.328 141.5,52.5C 141.427,54.0269 142.094,55.0269 143.5,55.5C 144.167,55.5 144.5,55.8333 144.5,56.5C 144.427,58.0269 145.094,59.0269 146.5,59.5C 148.738,61.1155 151.071,62.4488 153.5,63.5C 149.6,64.4299 145.6,64.7633 141.5,64.5C 136.814,59.1419 132.481,53.4753 128.5,47.5C 127.791,46.596 126.791,46.2627 125.5,46.5C 125.334,51.1785 125.501,55.8452 126,60.5C 126.383,61.056 126.883,61.3893 127.5,61.5C 128.833,62.1667 130.167,62.8333 131.5,63.5C 125.925,64.4524 120.259,64.7857 114.5,64.5C 114.167,64.5 113.833,64.5 113.5,64.5C 113.5,64.1667 113.5,63.8333 113.5,63.5C 115.091,62.7811 116.591,61.7811 118,60.5C 118.5,50.5056 118.666,40.5056 118.5,30.5C 117.462,28.4805 116.128,28.1472 114.5,29.5C 113.596,28.791 113.263,27.791 113.5,26.5C 119.69,26.1771 125.69,26.5104 131.5,27.5 Z"/></g>
<g><path style="opacity:0.558" fill="#e7e7e7" d="M 54.5,27.5 C 55.525,27.8966 55.6917,28.5632 55,29.5C 51.9567,29.9237 50.1234,31.5904 49.5,34.5C 50.4452,43.4653 50.7786,52.4653 50.5,61.5C 48.4805,51.029 48.1472,40.3623 49.5,29.5C 51.1955,28.8256 52.8621,28.1589 54.5,27.5 Z"/></g>
<g><path style="opacity:0.337" fill="#dfdfdf" d="M 131.5,27.5 C 132.404,28.209 132.737,29.209 132.5,30.5C 130.856,30.2865 129.356,30.6198 128,31.5C 127.501,35.1516 127.335,38.8183 127.5,42.5C 127.217,43.2891 126.717,43.9558 126,44.5C 125.333,39.8333 125.333,35.1667 126,30.5C 127.719,29.1312 129.552,28.1312 131.5,27.5 Z"/></g>
<g><path style="opacity:0.539" fill="#f3f3f3" d="M 151.5,27.5 C 152.404,28.209 152.737,29.209 152.5,30.5C 149.575,30.4598 146.909,31.2932 144.5,33C 141.611,36.6244 138.611,40.1244 135.5,43.5C 134.711,43.2172 134.044,42.7172 133.5,42C 138.577,35.7285 144.577,30.8952 151.5,27.5 Z"/></g>
<g><path style="opacity:0.535" fill="#e5e5e5" d="M 237.5,26.5 C 239.104,27.287 239.771,28.6203 239.5,30.5C 231.729,31.6027 226.729,35.9361 224.5,43.5C 224.217,44.2891 223.717,44.9558 223,45.5C 222.928,41.3888 224.261,37.7221 227,34.5C 230.727,31.914 234.227,29.2473 237.5,26.5 Z"/></g>
<g><path style="opacity:0.852" fill="#040404" d="M 107.5,30.5 C 108.575,34.938 106.908,36.938 102.5,36.5C 98.396,33.2563 98.896,30.5897 104,28.5C 105.459,28.8082 106.626,29.4749 107.5,30.5 Z"/></g>
<g><path style="opacity:0.12" fill="#e1e1e1" d="M 8.5,30.5 C 6.90097,30.7678 5.56764,30.4345 4.5,29.5C 6.12842,28.1472 7.46175,28.4805 8.5,30.5 Z"/></g>
<g><path style="opacity:0.118" fill="#e0e0e0" d="M 118.5,30.5 C 116.901,30.7678 115.568,30.4345 114.5,29.5C 116.128,28.1472 117.462,28.4805 118.5,30.5 Z"/></g>
<g><path style="opacity:0.088" fill="#e8e8e8" d="M 139.5,30.5 C 138.508,30.6716 137.842,30.3382 137.5,29.5C 138.623,28.2426 139.289,28.5759 139.5,30.5 Z"/></g>
<g><path style="opacity:0.882" fill="#060606" d="M 208.5,37.5 C 208.579,40.2706 208.079,42.9373 207,45.5C 201.793,50.36 197.127,55.36 193,60.5C 193.671,59.7476 194.504,59.4142 195.5,59.5C 200.843,60.6955 204.843,59.0288 207.5,54.5C 208.522,54.8555 209.189,55.5222 209.5,56.5C 207.96,58.8383 207.294,61.5049 207.5,64.5C 200.167,64.5 192.833,64.5 185.5,64.5C 184.475,64.1034 184.308,63.4368 185,62.5C 191.13,57.376 196.13,51.376 200,44.5C 200.891,41.5024 200.391,38.8357 198.5,36.5C 196.712,35.3775 194.712,35.2109 192.5,36C 190.746,37.9364 189.079,39.7698 187.5,41.5C 186.2,38.9759 186.2,36.3092 187.5,33.5C 193.914,29.5147 200.247,29.6814 206.5,34C 207.823,34.8159 208.489,35.9826 208.5,37.5 Z"/></g>
<g><path style="opacity:0.437" fill="#e6e6e6" d="M 107.5,30.5 C 110.448,34.1636 109.615,36.8302 105,38.5C 103.699,38.3613 102.866,37.6946 102.5,36.5C 106.908,36.938 108.575,34.938 107.5,30.5 Z"/></g>
<g><path style="opacity:0.369" fill="#cccccc" d="M 16.5,27.5 C 18.9569,30.7512 20.6236,34.4179 21.5,38.5C 19.0431,35.2488 17.3764,31.5821 16.5,27.5 Z"/></g>
<g><path style="opacity:0.603" fill="#f4f4f4" d="M 198.5,36.5 C 194.51,36.4372 191.844,38.2706 190.5,42C 189.251,42.7401 188.251,42.5735 187.5,41.5C 189.079,39.7698 190.746,37.9364 192.5,36C 194.712,35.2109 196.712,35.3775 198.5,36.5 Z"/></g>
<g><path style="opacity:0.639" fill="#e8e8e8" d="M 208.5,37.5 C 209.851,40.7723 209.684,44.1056 208,47.5C 203.938,51.7312 199.771,55.7312 195.5,59.5C 194.504,59.4142 193.671,59.7476 193,60.5C 197.127,55.36 201.793,50.36 207,45.5C 208.079,42.9373 208.579,40.2706 208.5,37.5 Z"/></g>
<g><path style="opacity:0.559" fill="#e7e7e7" d="M 41.5,39.5 C 37.5931,48.0237 33.7598,56.6904 30,65.5C 28.7083,66.7911 27.5417,66.7911 26.5,65.5C 28.1436,64.6836 29.3103,63.3502 30,61.5C 33.4717,52.7517 37.1384,44.0851 41,35.5C 41.49,36.7932 41.6567,38.1266 41.5,39.5 Z"/></g>
<g><path style="opacity:0.159" fill="#d7d7d7" d="M 77.5,26.5 C 80.7245,32.8185 83.3912,39.4852 85.5,46.5C 81.872,40.296 79.2053,33.6293 77.5,26.5 Z"/></g>
<g><path style="opacity:0.5" fill="#dddddd" d="M 74.5,40.5 C 73.2638,42.649 72.2638,44.9823 71.5,47.5C 70.3501,48.8502 69.6834,48.6836 69.5,47C 70.4247,43.6519 71.758,40.4852 73.5,37.5C 74.3857,38.325 74.719,39.325 74.5,40.5 Z"/></g>
<g><path style="opacity:0.494" fill="#dcdcdc" d="M 14.5,43.5 C 13.6279,49.7889 13.2946,56.1222 13.5,62.5C 11.9827,60.5379 11.3161,58.2046 11.5,55.5C 12.0551,49.8383 12.5551,44.1716 13,38.5C 14.0086,40.0249 14.5086,41.6916 14.5,43.5 Z"/></g>
<g><path style="opacity:0.905" fill="#080808" d="M 179.5,47.5 C 180.95,62.7048 174.283,68.0382 159.5,63.5C 151.533,56.7916 151.533,49.9583 159.5,43C 164.047,41.4548 168.713,41.1215 173.5,42C 175.996,43.331 177.996,45.1644 179.5,47.5 Z M 169.5,45.5 C 173.373,50.9892 173.373,56.4892 169.5,62C 167.457,62.64 165.79,62.14 164.5,60.5C 162.885,55.4908 163.219,50.6575 165.5,46C 166.793,45.51 168.127,45.3433 169.5,45.5 Z"/></g>
<g><path style="opacity:0.933" fill="#fbfbfb" d="M 109.5,42.5 C 109.568,48.8584 109.568,55.5251 109.5,62.5C 108.167,55.8333 108.167,49.1667 109.5,42.5 Z"/></g>
<g><path style="opacity:0.425" fill="#dadada" d="M 169.5,45.5 C 168.127,45.3433 166.793,45.51 165.5,46C 163.219,50.6575 162.885,55.4908 164.5,60.5C 163.034,59.653 162.2,58.3197 162,56.5C 160.926,51.891 161.76,47.7244 164.5,44C 166.674,43.1231 168.341,43.6231 169.5,45.5 Z"/></g>
<g><path style="opacity:0.216" fill="#7f7f7f" d="M 98.5,45.5 C 99.675,45.281 100.675,45.6143 101.5,46.5C 101.376,47.1067 101.043,47.44 100.5,47.5C 99.8333,46.8333 99.1667,46.1667 98.5,45.5 Z"/></g>
<g><path style="opacity:0.314" fill="#e1e1e1" d="M 128.5,47.5 C 127.514,51.97 127.181,56.6367 127.5,61.5C 126.883,61.3893 126.383,61.056 126,60.5C 125.501,55.8452 125.334,51.1785 125.5,46.5C 126.791,46.2627 127.791,46.596 128.5,47.5 Z"/></g>
<g><path style="opacity:0.49" fill="#e2e2e2" d="M 231.5,48.5 C 223.992,47.9275 221.659,51.2609 224.5,58.5C 223.778,58.0825 223.278,57.4158 223,56.5C 222.502,53.5184 222.335,50.5184 222.5,47.5C 224.199,47.3796 225.865,47.0463 227.5,46.5C 229.171,46.6682 230.504,47.3349 231.5,48.5 Z"/></g>
<g><path style="opacity:0.18" fill="#e5e5e5" d="M 85.5,46.5 C 86.9313,47.7804 87.5979,49.4471 87.5,51.5C 86.0687,50.2196 85.4021,48.5529 85.5,46.5 Z"/></g>
<g><path style="opacity:0.485" fill="#e6e6e6" d="M 179.5,47.5 C 182.626,53.397 181.959,58.897 177.5,64C 172.012,66.9145 166.345,67.2479 160.5,65C 159.944,64.6174 159.611,64.1174 159.5,63.5C 174.283,68.0382 180.95,62.7048 179.5,47.5 Z"/></g>
<g><path style="opacity:0.555" fill="#e9e9e9" d="M 240.5,47.5 C 244.932,58.6051 241.099,64.9384 229,66.5C 225.592,66.7555 222.759,65.7555 220.5,63.5C 222.956,64.2621 225.456,64.9288 228,65.5C 238.862,64.1026 243.028,58.1026 240.5,47.5 Z"/></g>
<g><path style="opacity:0.471" fill="#c2c2c2" d="M 26.5,48.5 C 27.5,49.8333 28.5,51.1667 29.5,52.5C 29.6495,53.552 29.4828,54.552 29,55.5C 27.5886,53.3496 26.7553,51.0163 26.5,48.5 Z"/></g>
<g><path style="opacity:0.465" fill="#f1f1f1" d="M 79.5,52.5 C 71.1465,50.0476 66.8132,53.0476 66.5,61.5C 65.5028,61.5299 64.8361,61.0299 64.5,60C 65.3084,57.2391 66.3084,54.5724 67.5,52C 71.6888,51.1881 75.6888,51.3547 79.5,52.5 Z"/></g>
<g><path style="opacity:0.18" fill="#e5e5e5" d="M 87.5,51.5 C 88.9313,52.7804 89.5979,54.4471 89.5,56.5C 88.0687,55.2196 87.4021,53.5529 87.5,51.5 Z"/></g>
<g><path style="opacity:0.616" fill="#7c7c7c" d="M 141.5,52.5 C 142.906,52.9731 143.573,53.9731 143.5,55.5C 142.094,55.0269 141.427,54.0269 141.5,52.5 Z"/></g>
<g><path style="opacity:0.787" fill="#f5f5f5" d="M 209.5,56.5 C 209.906,59.2812 209.906,62.2812 209.5,65.5C 201.316,65.8257 193.316,65.4924 185.5,64.5C 192.833,64.5 200.167,64.5 207.5,64.5C 207.294,61.5049 207.96,58.8383 209.5,56.5 Z"/></g>
<g><path style="opacity:0.753" fill="#888888" d="M 144.5,56.5 C 145.906,56.9731 146.573,57.9731 146.5,59.5C 145.094,59.0269 144.427,58.0269 144.5,56.5 Z"/></g>
<g><path style="opacity:0.369" fill="#d2d2d2" d="M 89.5,56.5 C 90.7368,57.9649 91.7368,59.6316 92.5,61.5C 90.2591,60.7002 89.2591,59.0336 89.5,56.5 Z"/></g>
<g><path style="opacity:0.842" fill="#fcfcfc" d="M 17.5,63.5 C 18.0431,63.56 18.3764,63.8933 18.5,64.5C 13.6819,65.8124 9.01524,65.8124 4.5,64.5C 8.93147,64.7693 13.2648,64.436 17.5,63.5 Z"/></g>
<g><path style="opacity:0.88" fill="#fbfbfb" d="M 69.5,63.5 C 70.0431,63.56 70.3764,63.8933 70.5,64.5C 59.6739,65.8235 49.0073,65.8235 38.5,64.5C 49.0487,64.1884 59.3821,63.8551 69.5,63.5 Z"/></g>
<g><path style="opacity:0.892" fill="#f6f6f6" d="M 112.5,63.5 C 112.833,63.5 113.167,63.5 113.5,63.5C 113.5,63.8333 113.5,64.1667 113.5,64.5C 102.167,65.8333 90.8333,65.8333 79.5,64.5C 90.5965,63.7337 101.596,63.4004 112.5,63.5 Z"/></g>
<g><path style="opacity:0.893" fill="#f8f8f8" d="M 131.5,63.5 C 132.043,63.56 132.376,63.8933 132.5,64.5C 126.346,65.8166 120.346,65.8166 114.5,64.5C 120.259,64.7857 125.925,64.4524 131.5,63.5 Z"/></g>
<g><path style="opacity:0.85" fill="#fafafa" d="M 153.5,63.5 C 154.043,63.56 154.376,63.8933 154.5,64.5C 150.016,65.8111 145.683,65.8111 141.5,64.5C 145.6,64.7633 149.6,64.4299 153.5,63.5 Z"/></g>
 <style>
        path { fill: #0284c7; }
     
    </style>
</svg>
