<?xml version="1.0" encoding="UTF-8"?>
<!DOCTYPE svg PUBLIC "-//W3C//DTD SVG 1.1//EN" "http://www.w3.org/Graphics/SVG/1.1/DTD/svg11.dtd">
<svg xmlns="http://www.w3.org/2000/svg" version="1.1" width="54px" height="54px" style="shape-rendering:geometricPrecision; text-rendering:geometricPrecision; image-rendering:optimizeQuality; fill-rule:evenodd; clip-rule:evenodd" xmlns:xlink="http://www.w3.org/1999/xlink">
<g><path style="opacity:0.89" fill="#070707" d="M -0.5,5.5 C 4.03225,5.18178 8.36559,5.51511 12.5,6.5C 13.3764,10.5821 15.0431,14.2488 17.5,17.5C 19.6744,20.5154 21.3411,23.8487 22.5,27.5C 22.7553,30.0163 23.5886,32.3496 25,34.5C 25.4828,33.552 25.6495,32.552 25.5,31.5C 29.3909,23.3739 33.0576,15.0406 36.5,6.5C 41.3181,5.18757 45.9848,5.18757 50.5,6.5C 48.8621,7.1589 47.1955,7.82556 45.5,8.5C 44.1472,19.3623 44.4805,30.029 46.5,40.5C 48.3057,41.0241 49.9724,41.6908 51.5,42.5C 45.9252,43.4524 40.2586,43.7857 34.5,43.5C 33.9569,43.44 33.6236,43.1067 33.5,42.5C 34.6283,41.7379 35.7949,41.0712 37,40.5C 37.4997,33.1742 37.6663,25.8409 37.5,18.5C 37.6567,17.1266 37.49,15.7932 37,14.5C 33.1384,23.0851 29.4717,31.7517 26,40.5C 25.3103,42.3502 24.1436,43.6836 22.5,44.5C 18.5145,37.1984 14.5145,29.865 10.5,22.5C 10.5086,20.6916 10.0086,19.0249 9,17.5C 8.55514,23.1716 8.05514,28.8383 7.5,34.5C 7.31608,37.2046 7.98274,39.5379 9.5,41.5C 11.099,41.2322 12.4324,41.5655 13.5,42.5C 9.2648,43.436 4.93147,43.7693 0.5,43.5C 0.166667,43.5 -0.166667,43.5 -0.5,43.5C -0.5,42.8333 -0.5,42.1667 -0.5,41.5C 1.39037,41.7035 2.89037,41.0368 4,39.5C 5.34011,29.4456 5.50678,19.4456 4.5,9.5C 3.46175,7.48052 2.12842,7.14719 0.5,8.5C 0.166667,8.5 -0.166667,8.5 -0.5,8.5C -0.5,7.5 -0.5,6.5 -0.5,5.5 Z"/></g>
<g><path style="opacity:0.558" fill="#e7e7e7" d="M 50.5,6.5 C 51.525,6.89657 51.6917,7.56323 51,8.5C 47.9567,8.92374 46.1234,10.5904 45.5,13.5C 46.4452,22.4653 46.7786,31.4653 46.5,40.5C 44.4805,30.029 44.1472,19.3623 45.5,8.5C 47.1955,7.82556 48.8621,7.1589 50.5,6.5 Z"/></g>
<g><path style="opacity:0.12" fill="#e1e1e1" d="M 4.5,9.5 C 2.90097,9.76781 1.56764,9.43448 0.5,8.5C 2.12842,7.14719 3.46175,7.48052 4.5,9.5 Z"/></g>
<g><path style="opacity:0.369" fill="#cccccc" d="M 12.5,6.5 C 14.9569,9.75123 16.6236,13.4179 17.5,17.5C 15.0431,14.2488 13.3764,10.5821 12.5,6.5 Z"/></g>
<g><path style="opacity:0.559" fill="#e7e7e7" d="M 37.5,18.5 C 33.5931,27.0237 29.7598,35.6904 26,44.5C 24.7083,45.7911 23.5417,45.7911 22.5,44.5C 24.1436,43.6836 25.3103,42.3502 26,40.5C 29.4717,31.7517 33.1384,23.0851 37,14.5C 37.49,15.7932 37.6567,17.1266 37.5,18.5 Z"/></g>
<g><path style="opacity:0.494" fill="#dcdcdc" d="M 10.5,22.5 C 9.62794,28.7889 9.2946,35.1222 9.5,41.5C 7.98274,39.5379 7.31608,37.2046 7.5,34.5C 8.05514,28.8383 8.55514,23.1716 9,17.5C 10.0086,19.0249 10.5086,20.6916 10.5,22.5 Z"/></g>
<g><path style="opacity:0.471" fill="#c2c2c2" d="M 22.5,27.5 C 23.5,28.8333 24.5,30.1667 25.5,31.5C 25.6495,32.552 25.4828,33.552 25,34.5C 23.5886,32.3496 22.7553,30.0163 22.5,27.5 Z"/></g>
<g><path style="opacity:0.842" fill="#fcfcfc" d="M 13.5,42.5 C 14.0431,42.56 14.3764,42.8933 14.5,43.5C 9.68191,44.8124 5.01524,44.8124 0.5,43.5C 4.93147,43.7693 9.2648,43.436 13.5,42.5 Z"/></g>
<g><path style="opacity:0.866" fill="#fbfbfb" d="M 51.5,42.5 C 52.0431,42.56 52.3764,42.8933 52.5,43.5C 46.3456,44.8166 40.3456,44.8166 34.5,43.5C 40.2586,43.7857 45.9252,43.4524 51.5,42.5 Z"/></g>
 <style>
        path { fill: #000; }
        @media (prefers-color-scheme: dark) {
            path { fill: #FFF; }
        }
    </style>
</svg>
